<mxfile host="app.diagrams.net" modified="2023-04-24T08:53:58.975Z" agent="Mozilla/5.0 (Windows NT 10.0; Win64; x64) AppleWebKit/537.36 (KHTML, like Gecko) Chrome/112.0.0.0 Safari/537.36" etag="FM0ZJrDZKD_qxuxIGDFd" version="21.2.1" type="device" pages="2">
  <diagram id="R2lEEEUBdFMjLlhIrx00" name="Page-1">
    <mxGraphModel dx="2759" dy="1042" grid="1" gridSize="10" guides="1" tooltips="1" connect="1" arrows="1" fold="1" page="1" pageScale="1" pageWidth="850" pageHeight="1100" math="0" shadow="0" extFonts="Permanent Marker^https://fonts.googleapis.com/css?family=Permanent+Marker">
      <root>
        <mxCell id="0" />
        <mxCell id="1" parent="0" />
        <mxCell id="UsVu9b1M6252_gEReIe7-1" value="Buyer" style="rounded=0;whiteSpace=wrap;html=1;fontStyle=1" parent="1" vertex="1">
          <mxGeometry x="760" y="590" width="130" height="60" as="geometry" />
        </mxCell>
        <mxCell id="UsVu9b1M6252_gEReIe7-2" value="Craftsman" style="rounded=0;whiteSpace=wrap;html=1;fontStyle=1" parent="1" vertex="1">
          <mxGeometry x="90" y="210" width="120" height="60" as="geometry" />
        </mxCell>
        <mxCell id="UsVu9b1M6252_gEReIe7-3" value="Categories" style="rounded=0;whiteSpace=wrap;html=1;fontStyle=1" parent="1" vertex="1">
          <mxGeometry x="90" y="980" width="120" height="60" as="geometry" />
        </mxCell>
        <mxCell id="UsVu9b1M6252_gEReIe7-4" value="id" style="ellipse;whiteSpace=wrap;html=1;fontStyle=1" parent="1" vertex="1">
          <mxGeometry x="-90" y="115" width="90" height="50" as="geometry" />
        </mxCell>
        <mxCell id="UsVu9b1M6252_gEReIe7-5" value="city" style="ellipse;whiteSpace=wrap;html=1;fontStyle=1" parent="1" vertex="1">
          <mxGeometry x="-10" y="70" width="80" height="50" as="geometry" />
        </mxCell>
        <mxCell id="UsVu9b1M6252_gEReIe7-6" value="address" style="ellipse;whiteSpace=wrap;html=1;fontStyle=1" parent="1" vertex="1">
          <mxGeometry x="80" y="40" width="80" height="50" as="geometry" />
        </mxCell>
        <mxCell id="UsVu9b1M6252_gEReIe7-7" value="email" style="ellipse;whiteSpace=wrap;html=1;fontStyle=1" parent="1" vertex="1">
          <mxGeometry x="170" y="40" width="90" height="50" as="geometry" />
        </mxCell>
        <mxCell id="UsVu9b1M6252_gEReIe7-8" value="" style="endArrow=classic;html=1;exitX=0;exitY=0.5;exitDx=0;exitDy=0;entryX=0.5;entryY=1;entryDx=0;entryDy=0;fontStyle=1" parent="1" source="UsVu9b1M6252_gEReIe7-2" target="UsVu9b1M6252_gEReIe7-4" edge="1">
          <mxGeometry width="50" height="50" relative="1" as="geometry">
            <mxPoint x="410" y="330" as="sourcePoint" />
            <mxPoint x="460" y="280" as="targetPoint" />
          </mxGeometry>
        </mxCell>
        <mxCell id="UsVu9b1M6252_gEReIe7-10" value="" style="endArrow=classic;html=1;exitX=0;exitY=0;exitDx=0;exitDy=0;entryX=0.5;entryY=1;entryDx=0;entryDy=0;fontStyle=1" parent="1" source="UsVu9b1M6252_gEReIe7-2" target="UsVu9b1M6252_gEReIe7-5" edge="1">
          <mxGeometry width="50" height="50" relative="1" as="geometry">
            <mxPoint x="100" y="220" as="sourcePoint" />
            <mxPoint x="5" y="150" as="targetPoint" />
          </mxGeometry>
        </mxCell>
        <mxCell id="UsVu9b1M6252_gEReIe7-11" value="" style="endArrow=classic;html=1;exitX=0.75;exitY=0;exitDx=0;exitDy=0;entryX=0.5;entryY=1;entryDx=0;entryDy=0;fontStyle=1" parent="1" source="UsVu9b1M6252_gEReIe7-2" target="UsVu9b1M6252_gEReIe7-7" edge="1">
          <mxGeometry width="50" height="50" relative="1" as="geometry">
            <mxPoint x="130" y="220" as="sourcePoint" />
            <mxPoint x="110" y="130" as="targetPoint" />
          </mxGeometry>
        </mxCell>
        <mxCell id="UsVu9b1M6252_gEReIe7-12" value="" style="endArrow=classic;html=1;exitX=0.25;exitY=0;exitDx=0;exitDy=0;entryX=0.5;entryY=1;entryDx=0;entryDy=0;fontStyle=1" parent="1" source="UsVu9b1M6252_gEReIe7-2" target="UsVu9b1M6252_gEReIe7-6" edge="1">
          <mxGeometry width="50" height="50" relative="1" as="geometry">
            <mxPoint x="140" y="230" as="sourcePoint" />
            <mxPoint x="120" y="140" as="targetPoint" />
          </mxGeometry>
        </mxCell>
        <mxCell id="UsVu9b1M6252_gEReIe7-13" value="id" style="ellipse;whiteSpace=wrap;html=1;fontStyle=1" parent="1" vertex="1">
          <mxGeometry x="560" y="430" width="90" height="50" as="geometry" />
        </mxCell>
        <mxCell id="UsVu9b1M6252_gEReIe7-14" value="name" style="ellipse;whiteSpace=wrap;html=1;fontStyle=1" parent="1" vertex="1">
          <mxGeometry x="660" y="400" width="80" height="50" as="geometry" />
        </mxCell>
        <mxCell id="UsVu9b1M6252_gEReIe7-15" value="city" style="ellipse;whiteSpace=wrap;html=1;fontStyle=1" parent="1" vertex="1">
          <mxGeometry x="910" y="390" width="80" height="50" as="geometry" />
        </mxCell>
        <mxCell id="UsVu9b1M6252_gEReIe7-16" value="email" style="ellipse;whiteSpace=wrap;html=1;fontStyle=1" parent="1" vertex="1">
          <mxGeometry x="960" y="452.5" width="90" height="50" as="geometry" />
        </mxCell>
        <mxCell id="UsVu9b1M6252_gEReIe7-17" value="" style="endArrow=classic;html=1;exitX=1;exitY=0;exitDx=0;exitDy=0;entryX=0;entryY=1;entryDx=0;entryDy=0;fontStyle=1" parent="1" source="UsVu9b1M6252_gEReIe7-1" target="UsVu9b1M6252_gEReIe7-16" edge="1">
          <mxGeometry width="50" height="50" relative="1" as="geometry">
            <mxPoint x="620" y="650" as="sourcePoint" />
            <mxPoint x="670" y="600" as="targetPoint" />
          </mxGeometry>
        </mxCell>
        <mxCell id="UsVu9b1M6252_gEReIe7-18" value="" style="endArrow=classic;html=1;exitX=0.75;exitY=0;exitDx=0;exitDy=0;entryX=0.5;entryY=1;entryDx=0;entryDy=0;fontStyle=1" parent="1" source="UsVu9b1M6252_gEReIe7-1" target="UsVu9b1M6252_gEReIe7-15" edge="1">
          <mxGeometry width="50" height="50" relative="1" as="geometry">
            <mxPoint x="630" y="660" as="sourcePoint" />
            <mxPoint x="680" y="610" as="targetPoint" />
          </mxGeometry>
        </mxCell>
        <mxCell id="UsVu9b1M6252_gEReIe7-19" value="" style="endArrow=classic;html=1;exitX=0.25;exitY=0;exitDx=0;exitDy=0;entryX=0.5;entryY=1;entryDx=0;entryDy=0;fontStyle=1" parent="1" source="UsVu9b1M6252_gEReIe7-1" target="UsVu9b1M6252_gEReIe7-14" edge="1">
          <mxGeometry width="50" height="50" relative="1" as="geometry">
            <mxPoint x="640" y="670" as="sourcePoint" />
            <mxPoint x="690" y="620" as="targetPoint" />
          </mxGeometry>
        </mxCell>
        <mxCell id="UsVu9b1M6252_gEReIe7-20" value="" style="endArrow=classic;html=1;exitX=0;exitY=0;exitDx=0;exitDy=0;entryX=1;entryY=1;entryDx=0;entryDy=0;fontStyle=1" parent="1" source="UsVu9b1M6252_gEReIe7-1" target="UsVu9b1M6252_gEReIe7-13" edge="1">
          <mxGeometry width="50" height="50" relative="1" as="geometry">
            <mxPoint x="650" y="680" as="sourcePoint" />
            <mxPoint x="700" y="630" as="targetPoint" />
          </mxGeometry>
        </mxCell>
        <mxCell id="UsVu9b1M6252_gEReIe7-21" value="Menjual" style="rhombus;whiteSpace=wrap;html=1;fontStyle=1" parent="1" vertex="1">
          <mxGeometry x="90" y="380" width="120" height="60" as="geometry" />
        </mxCell>
        <mxCell id="UsVu9b1M6252_gEReIe7-22" value="Order" style="rounded=0;whiteSpace=wrap;html=1;fontStyle=1" parent="1" vertex="1">
          <mxGeometry x="760" y="1010" width="120" height="60" as="geometry" />
        </mxCell>
        <mxCell id="UsVu9b1M6252_gEReIe7-23" value="City" style="rounded=0;whiteSpace=wrap;html=1;fontStyle=1" parent="1" vertex="1">
          <mxGeometry x="1340" y="785" width="120" height="60" as="geometry" />
        </mxCell>
        <mxCell id="UsVu9b1M6252_gEReIe7-24" value="Products" style="rounded=0;whiteSpace=wrap;html=1;fontStyle=1" parent="1" vertex="1">
          <mxGeometry x="90" y="590" width="120" height="60" as="geometry" />
        </mxCell>
        <mxCell id="UsVu9b1M6252_gEReIe7-58" value="category_id" style="ellipse;whiteSpace=wrap;html=1;fontStyle=1" parent="1" vertex="1">
          <mxGeometry x="-40" y="1112.5" width="100" height="50" as="geometry" />
        </mxCell>
        <mxCell id="UsVu9b1M6252_gEReIe7-59" value="product_id" style="ellipse;whiteSpace=wrap;html=1;fontStyle=1" parent="1" vertex="1">
          <mxGeometry x="750" y="1157.5" width="80" height="50" as="geometry" />
        </mxCell>
        <mxCell id="UsVu9b1M6252_gEReIe7-60" value="status" style="ellipse;whiteSpace=wrap;html=1;fontStyle=1" parent="1" vertex="1">
          <mxGeometry x="1040" y="1138.75" width="90" height="47.5" as="geometry" />
        </mxCell>
        <mxCell id="UsVu9b1M6252_gEReIe7-62" value="" style="endArrow=classic;html=1;exitX=0;exitY=1;exitDx=0;exitDy=0;entryX=1;entryY=0.5;entryDx=0;entryDy=0;fontStyle=1" parent="1" source="UsVu9b1M6252_gEReIe7-3" target="UsVu9b1M6252_gEReIe7-58" edge="1">
          <mxGeometry width="50" height="50" relative="1" as="geometry">
            <mxPoint x="435" y="1312.5" as="sourcePoint" />
            <mxPoint x="320" y="1252.5" as="targetPoint" />
          </mxGeometry>
        </mxCell>
        <mxCell id="UsVu9b1M6252_gEReIe7-63" value="" style="endArrow=classic;html=1;exitX=1;exitY=1;exitDx=0;exitDy=0;entryX=0.5;entryY=0;entryDx=0;entryDy=0;fontStyle=1" parent="1" source="UsVu9b1M6252_gEReIe7-22" target="UsVu9b1M6252_gEReIe7-60" edge="1">
          <mxGeometry width="50" height="50" relative="1" as="geometry">
            <mxPoint x="440" y="1070" as="sourcePoint" />
            <mxPoint x="340" y="990" as="targetPoint" />
          </mxGeometry>
        </mxCell>
        <mxCell id="UsVu9b1M6252_gEReIe7-64" value="" style="endArrow=classic;html=1;exitX=0.25;exitY=1;exitDx=0;exitDy=0;entryX=0.5;entryY=0;entryDx=0;entryDy=0;fontStyle=1" parent="1" source="UsVu9b1M6252_gEReIe7-22" target="UsVu9b1M6252_gEReIe7-59" edge="1">
          <mxGeometry width="50" height="50" relative="1" as="geometry">
            <mxPoint x="410" y="1070" as="sourcePoint" />
            <mxPoint x="350" y="1000" as="targetPoint" />
          </mxGeometry>
        </mxCell>
        <mxCell id="UsVu9b1M6252_gEReIe7-65" value="city_id" style="ellipse;whiteSpace=wrap;html=1;fontStyle=1" parent="1" vertex="1">
          <mxGeometry x="1290" y="680" width="90" height="50" as="geometry" />
        </mxCell>
        <mxCell id="UsVu9b1M6252_gEReIe7-66" value="city_name" style="ellipse;whiteSpace=wrap;html=1;fontStyle=1" parent="1" vertex="1">
          <mxGeometry x="1405" y="680" width="80" height="50" as="geometry" />
        </mxCell>
        <mxCell id="UsVu9b1M6252_gEReIe7-67" value="quantity" style="ellipse;whiteSpace=wrap;html=1;fontStyle=1" parent="1" vertex="1">
          <mxGeometry x="-130" y="680" width="80" height="50" as="geometry" />
        </mxCell>
        <mxCell id="UsVu9b1M6252_gEReIe7-68" value="name" style="ellipse;whiteSpace=wrap;html=1;fontStyle=1" parent="1" vertex="1">
          <mxGeometry x="-90" y="450" width="90" height="55" as="geometry" />
        </mxCell>
        <mxCell id="UsVu9b1M6252_gEReIe7-69" value="" style="endArrow=classic;html=1;exitX=0.25;exitY=0;exitDx=0;exitDy=0;entryX=0.5;entryY=1;entryDx=0;entryDy=0;fontStyle=1" parent="1" source="UsVu9b1M6252_gEReIe7-23" target="UsVu9b1M6252_gEReIe7-65" edge="1">
          <mxGeometry width="50" height="50" relative="1" as="geometry">
            <mxPoint x="1560" y="1015" as="sourcePoint" />
            <mxPoint x="1930" y="1085" as="targetPoint" />
          </mxGeometry>
        </mxCell>
        <mxCell id="UsVu9b1M6252_gEReIe7-70" value="" style="endArrow=classic;html=1;exitX=0.75;exitY=0;exitDx=0;exitDy=0;entryX=0.5;entryY=1;entryDx=0;entryDy=0;fontStyle=1" parent="1" source="UsVu9b1M6252_gEReIe7-23" target="UsVu9b1M6252_gEReIe7-66" edge="1">
          <mxGeometry width="50" height="50" relative="1" as="geometry">
            <mxPoint x="1590" y="1015" as="sourcePoint" />
            <mxPoint x="1475" y="955" as="targetPoint" />
          </mxGeometry>
        </mxCell>
        <mxCell id="UsVu9b1M6252_gEReIe7-71" value="" style="endArrow=classic;html=1;exitX=0;exitY=0;exitDx=0;exitDy=0;entryX=0.5;entryY=1;entryDx=0;entryDy=0;fontStyle=1" parent="1" source="UsVu9b1M6252_gEReIe7-24" target="UsVu9b1M6252_gEReIe7-68" edge="1">
          <mxGeometry width="50" height="50" relative="1" as="geometry">
            <mxPoint x="135" y="580" as="sourcePoint" />
            <mxPoint x="35" y="500" as="targetPoint" />
          </mxGeometry>
        </mxCell>
        <mxCell id="UsVu9b1M6252_gEReIe7-72" value="" style="endArrow=classic;html=1;exitX=0;exitY=1;exitDx=0;exitDy=0;entryX=1;entryY=0.5;entryDx=0;entryDy=0;fontStyle=1" parent="1" source="UsVu9b1M6252_gEReIe7-24" target="UsVu9b1M6252_gEReIe7-67" edge="1">
          <mxGeometry width="50" height="50" relative="1" as="geometry">
            <mxPoint x="105" y="580" as="sourcePoint" />
            <mxPoint x="45" y="510" as="targetPoint" />
          </mxGeometry>
        </mxCell>
        <mxCell id="UsVu9b1M6252_gEReIe7-73" value="buyer_id" style="ellipse;whiteSpace=wrap;html=1;fontStyle=1" parent="1" vertex="1">
          <mxGeometry x="930" y="1147.5" width="90" height="50" as="geometry" />
        </mxCell>
        <mxCell id="UsVu9b1M6252_gEReIe7-74" value="company_id" style="ellipse;whiteSpace=wrap;html=1;fontStyle=1" parent="1" vertex="1">
          <mxGeometry x="840" y="1147.5" width="80" height="50" as="geometry" />
        </mxCell>
        <mxCell id="UsVu9b1M6252_gEReIe7-75" value="order_id" style="ellipse;whiteSpace=wrap;html=1;fontStyle=1" parent="1" vertex="1">
          <mxGeometry x="1080" y="1077.5" width="80" height="50" as="geometry" />
        </mxCell>
        <mxCell id="UsVu9b1M6252_gEReIe7-77" value="" style="endArrow=classic;html=1;exitX=0.75;exitY=1;exitDx=0;exitDy=0;entryX=0.5;entryY=0;entryDx=0;entryDy=0;fontStyle=1" parent="1" source="UsVu9b1M6252_gEReIe7-22" target="UsVu9b1M6252_gEReIe7-73" edge="1">
          <mxGeometry width="50" height="50" relative="1" as="geometry">
            <mxPoint x="900" y="930" as="sourcePoint" />
            <mxPoint x="1270" y="1000" as="targetPoint" />
            <Array as="points">
              <mxPoint x="910" y="1107.5" />
            </Array>
          </mxGeometry>
        </mxCell>
        <mxCell id="UsVu9b1M6252_gEReIe7-78" value="" style="endArrow=classic;html=1;exitX=0.5;exitY=1;exitDx=0;exitDy=0;entryX=0.5;entryY=0;entryDx=0;entryDy=0;fontStyle=1" parent="1" source="UsVu9b1M6252_gEReIe7-22" target="UsVu9b1M6252_gEReIe7-74" edge="1">
          <mxGeometry width="50" height="50" relative="1" as="geometry">
            <mxPoint x="800" y="1270" as="sourcePoint" />
            <mxPoint x="685" y="1210" as="targetPoint" />
          </mxGeometry>
        </mxCell>
        <mxCell id="UsVu9b1M6252_gEReIe7-80" value="" style="endArrow=classic;html=1;exitX=1;exitY=0.75;exitDx=0;exitDy=0;entryX=0.5;entryY=0;entryDx=0;entryDy=0;fontStyle=1" parent="1" source="UsVu9b1M6252_gEReIe7-22" target="UsVu9b1M6252_gEReIe7-75" edge="1">
          <mxGeometry width="50" height="50" relative="1" as="geometry">
            <mxPoint x="860" y="1270" as="sourcePoint" />
            <mxPoint x="800" y="1200" as="targetPoint" />
          </mxGeometry>
        </mxCell>
        <mxCell id="UsVu9b1M6252_gEReIe7-83" value="dibeli" style="rhombus;whiteSpace=wrap;html=1;fontStyle=1" parent="1" vertex="1">
          <mxGeometry x="425" y="590" width="120" height="60" as="geometry" />
        </mxCell>
        <mxCell id="UsVu9b1M6252_gEReIe7-85" value="description" style="ellipse;whiteSpace=wrap;html=1;fontStyle=1" parent="1" vertex="1">
          <mxGeometry x="-145" y="585" width="105" height="55" as="geometry" />
        </mxCell>
        <mxCell id="UsVu9b1M6252_gEReIe7-86" value="" style="endArrow=classic;html=1;exitX=0;exitY=0.5;exitDx=0;exitDy=0;entryX=1;entryY=0.5;entryDx=0;entryDy=0;fontStyle=1" parent="1" source="UsVu9b1M6252_gEReIe7-24" target="UsVu9b1M6252_gEReIe7-85" edge="1">
          <mxGeometry width="50" height="50" relative="1" as="geometry">
            <mxPoint x="90" y="555" as="sourcePoint" />
            <mxPoint x="-15" y="475" as="targetPoint" />
          </mxGeometry>
        </mxCell>
        <mxCell id="UsVu9b1M6252_gEReIe7-87" value="" style="endArrow=none;html=1;exitX=0.5;exitY=0;exitDx=0;exitDy=0;entryX=0.5;entryY=1;entryDx=0;entryDy=0;fontStyle=1" parent="1" source="UsVu9b1M6252_gEReIe7-21" target="UsVu9b1M6252_gEReIe7-2" edge="1">
          <mxGeometry width="50" height="50" relative="1" as="geometry">
            <mxPoint x="90" y="350" as="sourcePoint" />
            <mxPoint x="140" y="300" as="targetPoint" />
          </mxGeometry>
        </mxCell>
        <mxCell id="UsVu9b1M6252_gEReIe7-89" value="" style="endArrow=none;html=1;exitX=0.5;exitY=0;exitDx=0;exitDy=0;entryX=0.5;entryY=1;entryDx=0;entryDy=0;fontStyle=1" parent="1" source="UsVu9b1M6252_gEReIe7-24" target="UsVu9b1M6252_gEReIe7-21" edge="1">
          <mxGeometry width="50" height="50" relative="1" as="geometry">
            <mxPoint x="160" y="390" as="sourcePoint" />
            <mxPoint x="160" y="280" as="targetPoint" />
          </mxGeometry>
        </mxCell>
        <mxCell id="UsVu9b1M6252_gEReIe7-90" value="" style="endArrow=none;html=1;entryX=1;entryY=0.5;entryDx=0;entryDy=0;exitX=0;exitY=0.5;exitDx=0;exitDy=0;fontStyle=1" parent="1" source="UsVu9b1M6252_gEReIe7-1" target="UsVu9b1M6252_gEReIe7-83" edge="1">
          <mxGeometry width="50" height="50" relative="1" as="geometry">
            <mxPoint x="210" y="540" as="sourcePoint" />
            <mxPoint x="610" y="620" as="targetPoint" />
          </mxGeometry>
        </mxCell>
        <mxCell id="UsVu9b1M6252_gEReIe7-91" value="" style="endArrow=none;html=1;exitX=1;exitY=0.5;exitDx=0;exitDy=0;entryX=0;entryY=0.5;entryDx=0;entryDy=0;fontStyle=1" parent="1" source="UsVu9b1M6252_gEReIe7-24" target="UsVu9b1M6252_gEReIe7-83" edge="1">
          <mxGeometry width="50" height="50" relative="1" as="geometry">
            <mxPoint x="70" y="550" as="sourcePoint" />
            <mxPoint x="120" y="500" as="targetPoint" />
          </mxGeometry>
        </mxCell>
        <mxCell id="UsVu9b1M6252_gEReIe7-93" value="Address" style="ellipse;whiteSpace=wrap;html=1;fontStyle=1" parent="1" vertex="1">
          <mxGeometry x="830" y="350" width="80" height="50" as="geometry" />
        </mxCell>
        <mxCell id="UsVu9b1M6252_gEReIe7-94" value="" style="endArrow=classic;html=1;exitX=0.636;exitY=0.024;exitDx=0;exitDy=0;entryX=0.5;entryY=1;entryDx=0;entryDy=0;exitPerimeter=0;fontStyle=1" parent="1" source="UsVu9b1M6252_gEReIe7-1" target="UsVu9b1M6252_gEReIe7-93" edge="1">
          <mxGeometry width="50" height="50" relative="1" as="geometry">
            <mxPoint x="867.5" y="600" as="sourcePoint" />
            <mxPoint x="690" y="620" as="targetPoint" />
          </mxGeometry>
        </mxCell>
        <mxCell id="UsVu9b1M6252_gEReIe7-95" value="Password" style="ellipse;whiteSpace=wrap;html=1;fontStyle=1" parent="1" vertex="1">
          <mxGeometry x="740" y="370" width="80" height="50" as="geometry" />
        </mxCell>
        <mxCell id="UsVu9b1M6252_gEReIe7-96" value="" style="endArrow=classic;html=1;exitX=0.5;exitY=0;exitDx=0;exitDy=0;entryX=0.5;entryY=1;entryDx=0;entryDy=0;fontStyle=1" parent="1" source="UsVu9b1M6252_gEReIe7-1" target="UsVu9b1M6252_gEReIe7-95" edge="1">
          <mxGeometry width="50" height="50" relative="1" as="geometry">
            <mxPoint x="810" y="570" as="sourcePoint" />
            <mxPoint x="630" y="520" as="targetPoint" />
          </mxGeometry>
        </mxCell>
        <mxCell id="UsVu9b1M6252_gEReIe7-97" value="category_name" style="ellipse;whiteSpace=wrap;html=1;fontStyle=1" parent="1" vertex="1">
          <mxGeometry x="240" y="1112.5" width="100" height="50" as="geometry" />
        </mxCell>
        <mxCell id="UsVu9b1M6252_gEReIe7-98" value="" style="endArrow=classic;html=1;exitX=1;exitY=1;exitDx=0;exitDy=0;entryX=0;entryY=0.5;entryDx=0;entryDy=0;fontStyle=1" parent="1" source="UsVu9b1M6252_gEReIe7-3" target="UsVu9b1M6252_gEReIe7-97" edge="1">
          <mxGeometry width="50" height="50" relative="1" as="geometry">
            <mxPoint x="300" y="1007.5" as="sourcePoint" />
            <mxPoint x="405" y="917.5" as="targetPoint" />
          </mxGeometry>
        </mxCell>
        <mxCell id="UsVu9b1M6252_gEReIe7-99" value="price" style="ellipse;whiteSpace=wrap;html=1;fontStyle=1" parent="1" vertex="1">
          <mxGeometry x="-150" y="505" width="90" height="55" as="geometry" />
        </mxCell>
        <mxCell id="UsVu9b1M6252_gEReIe7-100" value="" style="endArrow=classic;html=1;entryX=0.5;entryY=1;entryDx=0;entryDy=0;fontStyle=1" parent="1" target="UsVu9b1M6252_gEReIe7-99" edge="1">
          <mxGeometry width="50" height="50" relative="1" as="geometry">
            <mxPoint x="90" y="600" as="sourcePoint" />
            <mxPoint x="45" y="510" as="targetPoint" />
          </mxGeometry>
        </mxCell>
        <mxCell id="UsVu9b1M6252_gEReIe7-101" value="name" style="ellipse;whiteSpace=wrap;html=1;fontStyle=1" parent="1" vertex="1">
          <mxGeometry x="-110" y="735" width="90" height="55" as="geometry" />
        </mxCell>
        <mxCell id="UsVu9b1M6252_gEReIe7-102" value="" style="endArrow=classic;html=1;exitX=0.25;exitY=1;exitDx=0;exitDy=0;entryX=1;entryY=0.5;entryDx=0;entryDy=0;fontStyle=1" parent="1" source="UsVu9b1M6252_gEReIe7-24" target="UsVu9b1M6252_gEReIe7-101" edge="1">
          <mxGeometry width="50" height="50" relative="1" as="geometry">
            <mxPoint x="70" y="840" as="sourcePoint" />
            <mxPoint x="15" y="750" as="targetPoint" />
          </mxGeometry>
        </mxCell>
        <mxCell id="UsVu9b1M6252_gEReIe7-103" value="ctg" style="ellipse;whiteSpace=wrap;html=1;fontStyle=1" parent="1" vertex="1">
          <mxGeometry x="-280" y="630" width="90" height="55" as="geometry" />
        </mxCell>
        <mxCell id="UsVu9b1M6252_gEReIe7-104" value="" style="endArrow=classic;html=1;exitX=0;exitY=0.75;exitDx=0;exitDy=0;fontStyle=1" parent="1" source="UsVu9b1M6252_gEReIe7-24" edge="1">
          <mxGeometry width="50" height="50" relative="1" as="geometry">
            <mxPoint x="100" y="600" as="sourcePoint" />
            <mxPoint x="-190" y="660" as="targetPoint" />
          </mxGeometry>
        </mxCell>
        <mxCell id="UsVu9b1M6252_gEReIe7-105" value="payment_id" style="ellipse;whiteSpace=wrap;html=1;fontStyle=1" parent="1" vertex="1">
          <mxGeometry x="660" y="1157.5" width="80" height="50" as="geometry" />
        </mxCell>
        <mxCell id="UsVu9b1M6252_gEReIe7-106" value="" style="endArrow=classic;html=1;entryX=0.5;entryY=0;entryDx=0;entryDy=0;exitX=0;exitY=1;exitDx=0;exitDy=0;fontStyle=1" parent="1" source="UsVu9b1M6252_gEReIe7-22" target="UsVu9b1M6252_gEReIe7-105" edge="1">
          <mxGeometry width="50" height="50" relative="1" as="geometry">
            <mxPoint x="760" y="1020" as="sourcePoint" />
            <mxPoint x="360" y="1010" as="targetPoint" />
          </mxGeometry>
        </mxCell>
        <mxCell id="UsVu9b1M6252_gEReIe7-107" value="quantity" style="ellipse;whiteSpace=wrap;html=1;fontStyle=1" parent="1" vertex="1">
          <mxGeometry x="560" y="1137.5" width="80" height="50" as="geometry" />
        </mxCell>
        <mxCell id="UsVu9b1M6252_gEReIe7-108" value="" style="endArrow=classic;html=1;entryX=0.5;entryY=0;entryDx=0;entryDy=0;exitX=0;exitY=0.75;exitDx=0;exitDy=0;fontStyle=1" parent="1" source="UsVu9b1M6252_gEReIe7-22" target="UsVu9b1M6252_gEReIe7-107" edge="1">
          <mxGeometry width="50" height="50" relative="1" as="geometry">
            <mxPoint x="760" y="1030" as="sourcePoint" />
            <mxPoint x="370" y="1020" as="targetPoint" />
          </mxGeometry>
        </mxCell>
        <mxCell id="UsVu9b1M6252_gEReIe7-109" value="subtotal" style="ellipse;whiteSpace=wrap;html=1;fontStyle=1" parent="1" vertex="1">
          <mxGeometry x="490" y="1102.5" width="80" height="50" as="geometry" />
        </mxCell>
        <mxCell id="UsVu9b1M6252_gEReIe7-110" value="" style="endArrow=classic;html=1;entryX=1;entryY=0.5;entryDx=0;entryDy=0;entryPerimeter=0;fontStyle=1" parent="1" target="UsVu9b1M6252_gEReIe7-109" edge="1">
          <mxGeometry width="50" height="50" relative="1" as="geometry">
            <mxPoint x="760" y="1040.5" as="sourcePoint" />
            <mxPoint x="380" y="1030" as="targetPoint" />
          </mxGeometry>
        </mxCell>
        <mxCell id="UsVu9b1M6252_gEReIe7-111" value="name" style="ellipse;whiteSpace=wrap;html=1;fontStyle=1" parent="1" vertex="1">
          <mxGeometry x="340" y="120" width="90" height="50" as="geometry" />
        </mxCell>
        <mxCell id="UsVu9b1M6252_gEReIe7-112" value="" style="endArrow=classic;html=1;exitX=1;exitY=0.25;exitDx=0;exitDy=0;entryX=0.5;entryY=1;entryDx=0;entryDy=0;fontStyle=1" parent="1" source="UsVu9b1M6252_gEReIe7-2" target="UsVu9b1M6252_gEReIe7-111" edge="1">
          <mxGeometry width="50" height="50" relative="1" as="geometry">
            <mxPoint x="190" y="220" as="sourcePoint" />
            <mxPoint x="120" y="140" as="targetPoint" />
          </mxGeometry>
        </mxCell>
        <mxCell id="UsVu9b1M6252_gEReIe7-113" value="password" style="ellipse;whiteSpace=wrap;html=1;fontStyle=1" parent="1" vertex="1">
          <mxGeometry x="270" y="65" width="90" height="50" as="geometry" />
        </mxCell>
        <mxCell id="UsVu9b1M6252_gEReIe7-114" value="" style="endArrow=classic;html=1;exitX=1;exitY=0;exitDx=0;exitDy=0;entryX=0.5;entryY=1;entryDx=0;entryDy=0;fontStyle=1" parent="1" source="UsVu9b1M6252_gEReIe7-2" target="UsVu9b1M6252_gEReIe7-113" edge="1">
          <mxGeometry width="50" height="50" relative="1" as="geometry">
            <mxPoint x="290" y="215" as="sourcePoint" />
            <mxPoint x="210" y="155" as="targetPoint" />
          </mxGeometry>
        </mxCell>
        <mxCell id="UsVu9b1M6252_gEReIe7-116" value="" style="endArrow=none;html=1;exitX=0.5;exitY=0;exitDx=0;exitDy=0;entryX=0.5;entryY=1;entryDx=0;entryDy=0;fontStyle=1" parent="1" source="UsVu9b1M6252_gEReIe7-3" target="UsVu9b1M6252_gEReIe7-117" edge="1">
          <mxGeometry width="50" height="50" relative="1" as="geometry">
            <mxPoint x="160" y="600" as="sourcePoint" />
            <mxPoint x="150" y="850" as="targetPoint" />
          </mxGeometry>
        </mxCell>
        <mxCell id="UsVu9b1M6252_gEReIe7-117" value="mempunyai" style="rhombus;whiteSpace=wrap;html=1;fontStyle=1" parent="1" vertex="1">
          <mxGeometry x="90" y="780" width="120" height="60" as="geometry" />
        </mxCell>
        <mxCell id="UsVu9b1M6252_gEReIe7-118" value="" style="endArrow=none;html=1;exitX=0.5;exitY=0;exitDx=0;exitDy=0;entryX=0.5;entryY=1;entryDx=0;entryDy=0;fontStyle=1" parent="1" source="UsVu9b1M6252_gEReIe7-117" target="UsVu9b1M6252_gEReIe7-24" edge="1">
          <mxGeometry width="50" height="50" relative="1" as="geometry">
            <mxPoint x="160" y="990" as="sourcePoint" />
            <mxPoint x="160" y="850" as="targetPoint" />
          </mxGeometry>
        </mxCell>
        <mxCell id="UsVu9b1M6252_gEReIe7-119" value="membuat" style="rhombus;whiteSpace=wrap;html=1;fontStyle=1" parent="1" vertex="1">
          <mxGeometry x="765" y="780" width="120" height="60" as="geometry" />
        </mxCell>
        <mxCell id="UsVu9b1M6252_gEReIe7-120" value="" style="endArrow=none;html=1;exitX=0.5;exitY=0;exitDx=0;exitDy=0;entryX=0.5;entryY=1;entryDx=0;entryDy=0;fontStyle=1" parent="1" source="UsVu9b1M6252_gEReIe7-119" target="UsVu9b1M6252_gEReIe7-1" edge="1">
          <mxGeometry width="50" height="50" relative="1" as="geometry">
            <mxPoint x="310" y="600" as="sourcePoint" />
            <mxPoint x="310" y="450" as="targetPoint" />
          </mxGeometry>
        </mxCell>
        <mxCell id="UsVu9b1M6252_gEReIe7-121" value="" style="endArrow=none;html=1;entryX=0.5;entryY=1;entryDx=0;entryDy=0;exitX=0.5;exitY=0;exitDx=0;exitDy=0;fontStyle=1" parent="1" source="UsVu9b1M6252_gEReIe7-22" target="UsVu9b1M6252_gEReIe7-119" edge="1">
          <mxGeometry width="50" height="50" relative="1" as="geometry">
            <mxPoint x="770" y="630" as="sourcePoint" />
            <mxPoint x="470" y="630" as="targetPoint" />
          </mxGeometry>
        </mxCell>
      </root>
    </mxGraphModel>
  </diagram>
  <diagram name="Copy of Page-1" id="gRyyfrlhP9nJFZOAsIyS">
    <mxGraphModel dx="3410" dy="1460" grid="1" gridSize="10" guides="1" tooltips="1" connect="1" arrows="1" fold="1" page="1" pageScale="1" pageWidth="850" pageHeight="1100" math="0" shadow="0" extFonts="Permanent Marker^https://fonts.googleapis.com/css?family=Permanent+Marker">
      <root>
        <mxCell id="FTixMd0hW5arpMdyL_Ps-0" />
        <mxCell id="FTixMd0hW5arpMdyL_Ps-1" parent="FTixMd0hW5arpMdyL_Ps-0" />
        <mxCell id="FTixMd0hW5arpMdyL_Ps-2" value="Buyer" style="rounded=0;whiteSpace=wrap;html=1;" vertex="1" parent="FTixMd0hW5arpMdyL_Ps-1">
          <mxGeometry x="760" y="590" width="130" height="60" as="geometry" />
        </mxCell>
        <mxCell id="FTixMd0hW5arpMdyL_Ps-3" value="Craftsman" style="rounded=0;whiteSpace=wrap;html=1;" vertex="1" parent="FTixMd0hW5arpMdyL_Ps-1">
          <mxGeometry x="90" y="210" width="120" height="60" as="geometry" />
        </mxCell>
        <mxCell id="FTixMd0hW5arpMdyL_Ps-4" value="Categories" style="rounded=0;whiteSpace=wrap;html=1;" vertex="1" parent="FTixMd0hW5arpMdyL_Ps-1">
          <mxGeometry x="90" y="980" width="120" height="60" as="geometry" />
        </mxCell>
        <mxCell id="FTixMd0hW5arpMdyL_Ps-5" value="id" style="ellipse;whiteSpace=wrap;html=1;" vertex="1" parent="FTixMd0hW5arpMdyL_Ps-1">
          <mxGeometry x="-90" y="115" width="90" height="50" as="geometry" />
        </mxCell>
        <mxCell id="FTixMd0hW5arpMdyL_Ps-6" value="city" style="ellipse;whiteSpace=wrap;html=1;" vertex="1" parent="FTixMd0hW5arpMdyL_Ps-1">
          <mxGeometry x="-10" y="70" width="80" height="50" as="geometry" />
        </mxCell>
        <mxCell id="FTixMd0hW5arpMdyL_Ps-7" value="address" style="ellipse;whiteSpace=wrap;html=1;" vertex="1" parent="FTixMd0hW5arpMdyL_Ps-1">
          <mxGeometry x="80" y="40" width="80" height="50" as="geometry" />
        </mxCell>
        <mxCell id="FTixMd0hW5arpMdyL_Ps-8" value="email" style="ellipse;whiteSpace=wrap;html=1;" vertex="1" parent="FTixMd0hW5arpMdyL_Ps-1">
          <mxGeometry x="170" y="40" width="90" height="50" as="geometry" />
        </mxCell>
        <mxCell id="FTixMd0hW5arpMdyL_Ps-9" value="" style="endArrow=classic;html=1;exitX=0;exitY=0.5;exitDx=0;exitDy=0;entryX=0.5;entryY=1;entryDx=0;entryDy=0;" edge="1" parent="FTixMd0hW5arpMdyL_Ps-1" source="FTixMd0hW5arpMdyL_Ps-3" target="FTixMd0hW5arpMdyL_Ps-5">
          <mxGeometry width="50" height="50" relative="1" as="geometry">
            <mxPoint x="410" y="330" as="sourcePoint" />
            <mxPoint x="460" y="280" as="targetPoint" />
          </mxGeometry>
        </mxCell>
        <mxCell id="FTixMd0hW5arpMdyL_Ps-10" value="" style="endArrow=classic;html=1;exitX=0;exitY=0;exitDx=0;exitDy=0;entryX=0.5;entryY=1;entryDx=0;entryDy=0;" edge="1" parent="FTixMd0hW5arpMdyL_Ps-1" source="FTixMd0hW5arpMdyL_Ps-3" target="FTixMd0hW5arpMdyL_Ps-6">
          <mxGeometry width="50" height="50" relative="1" as="geometry">
            <mxPoint x="100" y="220" as="sourcePoint" />
            <mxPoint x="5" y="150" as="targetPoint" />
          </mxGeometry>
        </mxCell>
        <mxCell id="FTixMd0hW5arpMdyL_Ps-11" value="" style="endArrow=classic;html=1;exitX=0.75;exitY=0;exitDx=0;exitDy=0;entryX=0.5;entryY=1;entryDx=0;entryDy=0;" edge="1" parent="FTixMd0hW5arpMdyL_Ps-1" source="FTixMd0hW5arpMdyL_Ps-3" target="FTixMd0hW5arpMdyL_Ps-8">
          <mxGeometry width="50" height="50" relative="1" as="geometry">
            <mxPoint x="130" y="220" as="sourcePoint" />
            <mxPoint x="110" y="130" as="targetPoint" />
          </mxGeometry>
        </mxCell>
        <mxCell id="FTixMd0hW5arpMdyL_Ps-12" value="" style="endArrow=classic;html=1;exitX=0.25;exitY=0;exitDx=0;exitDy=0;entryX=0.5;entryY=1;entryDx=0;entryDy=0;" edge="1" parent="FTixMd0hW5arpMdyL_Ps-1" source="FTixMd0hW5arpMdyL_Ps-3" target="FTixMd0hW5arpMdyL_Ps-7">
          <mxGeometry width="50" height="50" relative="1" as="geometry">
            <mxPoint x="140" y="230" as="sourcePoint" />
            <mxPoint x="120" y="140" as="targetPoint" />
          </mxGeometry>
        </mxCell>
        <mxCell id="FTixMd0hW5arpMdyL_Ps-13" value="id" style="ellipse;whiteSpace=wrap;html=1;" vertex="1" parent="FTixMd0hW5arpMdyL_Ps-1">
          <mxGeometry x="560" y="430" width="90" height="50" as="geometry" />
        </mxCell>
        <mxCell id="FTixMd0hW5arpMdyL_Ps-14" value="name" style="ellipse;whiteSpace=wrap;html=1;" vertex="1" parent="FTixMd0hW5arpMdyL_Ps-1">
          <mxGeometry x="660" y="400" width="80" height="50" as="geometry" />
        </mxCell>
        <mxCell id="FTixMd0hW5arpMdyL_Ps-15" value="city" style="ellipse;whiteSpace=wrap;html=1;" vertex="1" parent="FTixMd0hW5arpMdyL_Ps-1">
          <mxGeometry x="910" y="390" width="80" height="50" as="geometry" />
        </mxCell>
        <mxCell id="FTixMd0hW5arpMdyL_Ps-16" value="email" style="ellipse;whiteSpace=wrap;html=1;" vertex="1" parent="FTixMd0hW5arpMdyL_Ps-1">
          <mxGeometry x="960" y="452.5" width="90" height="50" as="geometry" />
        </mxCell>
        <mxCell id="FTixMd0hW5arpMdyL_Ps-17" value="" style="endArrow=classic;html=1;exitX=1;exitY=0;exitDx=0;exitDy=0;entryX=0;entryY=1;entryDx=0;entryDy=0;" edge="1" parent="FTixMd0hW5arpMdyL_Ps-1" source="FTixMd0hW5arpMdyL_Ps-2" target="FTixMd0hW5arpMdyL_Ps-16">
          <mxGeometry width="50" height="50" relative="1" as="geometry">
            <mxPoint x="620" y="650" as="sourcePoint" />
            <mxPoint x="670" y="600" as="targetPoint" />
          </mxGeometry>
        </mxCell>
        <mxCell id="FTixMd0hW5arpMdyL_Ps-18" value="" style="endArrow=classic;html=1;exitX=0.75;exitY=0;exitDx=0;exitDy=0;entryX=0.5;entryY=1;entryDx=0;entryDy=0;" edge="1" parent="FTixMd0hW5arpMdyL_Ps-1" source="FTixMd0hW5arpMdyL_Ps-2" target="FTixMd0hW5arpMdyL_Ps-15">
          <mxGeometry width="50" height="50" relative="1" as="geometry">
            <mxPoint x="630" y="660" as="sourcePoint" />
            <mxPoint x="680" y="610" as="targetPoint" />
          </mxGeometry>
        </mxCell>
        <mxCell id="FTixMd0hW5arpMdyL_Ps-19" value="" style="endArrow=classic;html=1;exitX=0.25;exitY=0;exitDx=0;exitDy=0;entryX=0.5;entryY=1;entryDx=0;entryDy=0;" edge="1" parent="FTixMd0hW5arpMdyL_Ps-1" source="FTixMd0hW5arpMdyL_Ps-2" target="FTixMd0hW5arpMdyL_Ps-14">
          <mxGeometry width="50" height="50" relative="1" as="geometry">
            <mxPoint x="640" y="670" as="sourcePoint" />
            <mxPoint x="690" y="620" as="targetPoint" />
          </mxGeometry>
        </mxCell>
        <mxCell id="FTixMd0hW5arpMdyL_Ps-20" value="" style="endArrow=classic;html=1;exitX=0;exitY=0;exitDx=0;exitDy=0;entryX=1;entryY=1;entryDx=0;entryDy=0;" edge="1" parent="FTixMd0hW5arpMdyL_Ps-1" source="FTixMd0hW5arpMdyL_Ps-2" target="FTixMd0hW5arpMdyL_Ps-13">
          <mxGeometry width="50" height="50" relative="1" as="geometry">
            <mxPoint x="650" y="680" as="sourcePoint" />
            <mxPoint x="700" y="630" as="targetPoint" />
          </mxGeometry>
        </mxCell>
        <mxCell id="FTixMd0hW5arpMdyL_Ps-21" value="Menjual" style="rhombus;whiteSpace=wrap;html=1;" vertex="1" parent="FTixMd0hW5arpMdyL_Ps-1">
          <mxGeometry x="90" y="380" width="120" height="60" as="geometry" />
        </mxCell>
        <mxCell id="FTixMd0hW5arpMdyL_Ps-22" value="Order" style="rounded=0;whiteSpace=wrap;html=1;" vertex="1" parent="FTixMd0hW5arpMdyL_Ps-1">
          <mxGeometry x="760" y="1010" width="120" height="60" as="geometry" />
        </mxCell>
        <mxCell id="FTixMd0hW5arpMdyL_Ps-23" value="City" style="rounded=0;whiteSpace=wrap;html=1;" vertex="1" parent="FTixMd0hW5arpMdyL_Ps-1">
          <mxGeometry x="1340" y="785" width="120" height="60" as="geometry" />
        </mxCell>
        <mxCell id="FTixMd0hW5arpMdyL_Ps-24" value="Products" style="rounded=0;whiteSpace=wrap;html=1;" vertex="1" parent="FTixMd0hW5arpMdyL_Ps-1">
          <mxGeometry x="90" y="590" width="120" height="60" as="geometry" />
        </mxCell>
        <mxCell id="FTixMd0hW5arpMdyL_Ps-25" value="category_id" style="ellipse;whiteSpace=wrap;html=1;" vertex="1" parent="FTixMd0hW5arpMdyL_Ps-1">
          <mxGeometry x="-40" y="1112.5" width="100" height="50" as="geometry" />
        </mxCell>
        <mxCell id="FTixMd0hW5arpMdyL_Ps-26" value="product_id" style="ellipse;whiteSpace=wrap;html=1;" vertex="1" parent="FTixMd0hW5arpMdyL_Ps-1">
          <mxGeometry x="750" y="1157.5" width="80" height="50" as="geometry" />
        </mxCell>
        <mxCell id="FTixMd0hW5arpMdyL_Ps-27" value="status" style="ellipse;whiteSpace=wrap;html=1;" vertex="1" parent="FTixMd0hW5arpMdyL_Ps-1">
          <mxGeometry x="1040" y="1138.75" width="90" height="47.5" as="geometry" />
        </mxCell>
        <mxCell id="FTixMd0hW5arpMdyL_Ps-28" value="" style="endArrow=classic;html=1;exitX=0;exitY=1;exitDx=0;exitDy=0;entryX=1;entryY=0.5;entryDx=0;entryDy=0;" edge="1" parent="FTixMd0hW5arpMdyL_Ps-1" source="FTixMd0hW5arpMdyL_Ps-4" target="FTixMd0hW5arpMdyL_Ps-25">
          <mxGeometry width="50" height="50" relative="1" as="geometry">
            <mxPoint x="435" y="1312.5" as="sourcePoint" />
            <mxPoint x="320" y="1252.5" as="targetPoint" />
          </mxGeometry>
        </mxCell>
        <mxCell id="FTixMd0hW5arpMdyL_Ps-29" value="" style="endArrow=classic;html=1;exitX=1;exitY=1;exitDx=0;exitDy=0;entryX=0.5;entryY=0;entryDx=0;entryDy=0;" edge="1" parent="FTixMd0hW5arpMdyL_Ps-1" source="FTixMd0hW5arpMdyL_Ps-22" target="FTixMd0hW5arpMdyL_Ps-27">
          <mxGeometry width="50" height="50" relative="1" as="geometry">
            <mxPoint x="440" y="1070" as="sourcePoint" />
            <mxPoint x="340" y="990" as="targetPoint" />
          </mxGeometry>
        </mxCell>
        <mxCell id="FTixMd0hW5arpMdyL_Ps-30" value="" style="endArrow=classic;html=1;exitX=0.25;exitY=1;exitDx=0;exitDy=0;entryX=0.5;entryY=0;entryDx=0;entryDy=0;" edge="1" parent="FTixMd0hW5arpMdyL_Ps-1" source="FTixMd0hW5arpMdyL_Ps-22" target="FTixMd0hW5arpMdyL_Ps-26">
          <mxGeometry width="50" height="50" relative="1" as="geometry">
            <mxPoint x="410" y="1070" as="sourcePoint" />
            <mxPoint x="350" y="1000" as="targetPoint" />
          </mxGeometry>
        </mxCell>
        <mxCell id="FTixMd0hW5arpMdyL_Ps-31" value="city_id" style="ellipse;whiteSpace=wrap;html=1;" vertex="1" parent="FTixMd0hW5arpMdyL_Ps-1">
          <mxGeometry x="1290" y="680" width="90" height="50" as="geometry" />
        </mxCell>
        <mxCell id="FTixMd0hW5arpMdyL_Ps-32" value="city_name" style="ellipse;whiteSpace=wrap;html=1;" vertex="1" parent="FTixMd0hW5arpMdyL_Ps-1">
          <mxGeometry x="1405" y="680" width="80" height="50" as="geometry" />
        </mxCell>
        <mxCell id="FTixMd0hW5arpMdyL_Ps-33" value="quantity" style="ellipse;whiteSpace=wrap;html=1;" vertex="1" parent="FTixMd0hW5arpMdyL_Ps-1">
          <mxGeometry x="-130" y="680" width="80" height="50" as="geometry" />
        </mxCell>
        <mxCell id="FTixMd0hW5arpMdyL_Ps-34" value="name" style="ellipse;whiteSpace=wrap;html=1;" vertex="1" parent="FTixMd0hW5arpMdyL_Ps-1">
          <mxGeometry x="-90" y="450" width="90" height="55" as="geometry" />
        </mxCell>
        <mxCell id="FTixMd0hW5arpMdyL_Ps-35" value="" style="endArrow=classic;html=1;exitX=0.25;exitY=0;exitDx=0;exitDy=0;entryX=0.5;entryY=1;entryDx=0;entryDy=0;" edge="1" parent="FTixMd0hW5arpMdyL_Ps-1" source="FTixMd0hW5arpMdyL_Ps-23" target="FTixMd0hW5arpMdyL_Ps-31">
          <mxGeometry width="50" height="50" relative="1" as="geometry">
            <mxPoint x="1560" y="1015" as="sourcePoint" />
            <mxPoint x="1930" y="1085" as="targetPoint" />
          </mxGeometry>
        </mxCell>
        <mxCell id="FTixMd0hW5arpMdyL_Ps-36" value="" style="endArrow=classic;html=1;exitX=0.75;exitY=0;exitDx=0;exitDy=0;entryX=0.5;entryY=1;entryDx=0;entryDy=0;" edge="1" parent="FTixMd0hW5arpMdyL_Ps-1" source="FTixMd0hW5arpMdyL_Ps-23" target="FTixMd0hW5arpMdyL_Ps-32">
          <mxGeometry width="50" height="50" relative="1" as="geometry">
            <mxPoint x="1590" y="1015" as="sourcePoint" />
            <mxPoint x="1475" y="955" as="targetPoint" />
          </mxGeometry>
        </mxCell>
        <mxCell id="FTixMd0hW5arpMdyL_Ps-37" value="" style="endArrow=classic;html=1;exitX=0;exitY=0;exitDx=0;exitDy=0;entryX=0.5;entryY=1;entryDx=0;entryDy=0;" edge="1" parent="FTixMd0hW5arpMdyL_Ps-1" source="FTixMd0hW5arpMdyL_Ps-24" target="FTixMd0hW5arpMdyL_Ps-34">
          <mxGeometry width="50" height="50" relative="1" as="geometry">
            <mxPoint x="135" y="580" as="sourcePoint" />
            <mxPoint x="35" y="500" as="targetPoint" />
          </mxGeometry>
        </mxCell>
        <mxCell id="FTixMd0hW5arpMdyL_Ps-38" value="" style="endArrow=classic;html=1;exitX=0;exitY=1;exitDx=0;exitDy=0;entryX=1;entryY=0.5;entryDx=0;entryDy=0;" edge="1" parent="FTixMd0hW5arpMdyL_Ps-1" source="FTixMd0hW5arpMdyL_Ps-24" target="FTixMd0hW5arpMdyL_Ps-33">
          <mxGeometry width="50" height="50" relative="1" as="geometry">
            <mxPoint x="105" y="580" as="sourcePoint" />
            <mxPoint x="45" y="510" as="targetPoint" />
          </mxGeometry>
        </mxCell>
        <mxCell id="FTixMd0hW5arpMdyL_Ps-39" value="buyer_id" style="ellipse;whiteSpace=wrap;html=1;" vertex="1" parent="FTixMd0hW5arpMdyL_Ps-1">
          <mxGeometry x="930" y="1147.5" width="90" height="50" as="geometry" />
        </mxCell>
        <mxCell id="FTixMd0hW5arpMdyL_Ps-40" value="company_id" style="ellipse;whiteSpace=wrap;html=1;" vertex="1" parent="FTixMd0hW5arpMdyL_Ps-1">
          <mxGeometry x="840" y="1147.5" width="80" height="50" as="geometry" />
        </mxCell>
        <mxCell id="FTixMd0hW5arpMdyL_Ps-41" value="order_id" style="ellipse;whiteSpace=wrap;html=1;" vertex="1" parent="FTixMd0hW5arpMdyL_Ps-1">
          <mxGeometry x="1080" y="1077.5" width="80" height="50" as="geometry" />
        </mxCell>
        <mxCell id="FTixMd0hW5arpMdyL_Ps-42" value="" style="endArrow=classic;html=1;exitX=0.75;exitY=1;exitDx=0;exitDy=0;entryX=0.5;entryY=0;entryDx=0;entryDy=0;" edge="1" parent="FTixMd0hW5arpMdyL_Ps-1" source="FTixMd0hW5arpMdyL_Ps-22" target="FTixMd0hW5arpMdyL_Ps-39">
          <mxGeometry width="50" height="50" relative="1" as="geometry">
            <mxPoint x="900" y="930" as="sourcePoint" />
            <mxPoint x="1270" y="1000" as="targetPoint" />
            <Array as="points">
              <mxPoint x="910" y="1107.5" />
            </Array>
          </mxGeometry>
        </mxCell>
        <mxCell id="FTixMd0hW5arpMdyL_Ps-43" value="" style="endArrow=classic;html=1;exitX=0.5;exitY=1;exitDx=0;exitDy=0;entryX=0.5;entryY=0;entryDx=0;entryDy=0;" edge="1" parent="FTixMd0hW5arpMdyL_Ps-1" source="FTixMd0hW5arpMdyL_Ps-22" target="FTixMd0hW5arpMdyL_Ps-40">
          <mxGeometry width="50" height="50" relative="1" as="geometry">
            <mxPoint x="800" y="1270" as="sourcePoint" />
            <mxPoint x="685" y="1210" as="targetPoint" />
          </mxGeometry>
        </mxCell>
        <mxCell id="FTixMd0hW5arpMdyL_Ps-44" value="" style="endArrow=classic;html=1;exitX=1;exitY=0.75;exitDx=0;exitDy=0;entryX=0.5;entryY=0;entryDx=0;entryDy=0;" edge="1" parent="FTixMd0hW5arpMdyL_Ps-1" source="FTixMd0hW5arpMdyL_Ps-22" target="FTixMd0hW5arpMdyL_Ps-41">
          <mxGeometry width="50" height="50" relative="1" as="geometry">
            <mxPoint x="860" y="1270" as="sourcePoint" />
            <mxPoint x="800" y="1200" as="targetPoint" />
          </mxGeometry>
        </mxCell>
        <mxCell id="FTixMd0hW5arpMdyL_Ps-45" value="Menjual" style="rhombus;whiteSpace=wrap;html=1;" vertex="1" parent="FTixMd0hW5arpMdyL_Ps-1">
          <mxGeometry x="-535" y="50" width="120" height="60" as="geometry" />
        </mxCell>
        <mxCell id="FTixMd0hW5arpMdyL_Ps-46" value="Menjual" style="rhombus;whiteSpace=wrap;html=1;" vertex="1" parent="FTixMd0hW5arpMdyL_Ps-1">
          <mxGeometry x="-720" y="110" width="120" height="60" as="geometry" />
        </mxCell>
        <mxCell id="FTixMd0hW5arpMdyL_Ps-47" value="dibeli" style="rhombus;whiteSpace=wrap;html=1;" vertex="1" parent="FTixMd0hW5arpMdyL_Ps-1">
          <mxGeometry x="425" y="590" width="120" height="60" as="geometry" />
        </mxCell>
        <mxCell id="FTixMd0hW5arpMdyL_Ps-48" value="description" style="ellipse;whiteSpace=wrap;html=1;" vertex="1" parent="FTixMd0hW5arpMdyL_Ps-1">
          <mxGeometry x="-145" y="585" width="105" height="55" as="geometry" />
        </mxCell>
        <mxCell id="FTixMd0hW5arpMdyL_Ps-49" value="" style="endArrow=classic;html=1;exitX=0;exitY=0.5;exitDx=0;exitDy=0;entryX=1;entryY=0.5;entryDx=0;entryDy=0;" edge="1" parent="FTixMd0hW5arpMdyL_Ps-1" source="FTixMd0hW5arpMdyL_Ps-24" target="FTixMd0hW5arpMdyL_Ps-48">
          <mxGeometry width="50" height="50" relative="1" as="geometry">
            <mxPoint x="90" y="555" as="sourcePoint" />
            <mxPoint x="-15" y="475" as="targetPoint" />
          </mxGeometry>
        </mxCell>
        <mxCell id="FTixMd0hW5arpMdyL_Ps-50" value="" style="endArrow=none;html=1;exitX=0.5;exitY=0;exitDx=0;exitDy=0;entryX=0.5;entryY=1;entryDx=0;entryDy=0;" edge="1" parent="FTixMd0hW5arpMdyL_Ps-1" source="FTixMd0hW5arpMdyL_Ps-21" target="FTixMd0hW5arpMdyL_Ps-3">
          <mxGeometry width="50" height="50" relative="1" as="geometry">
            <mxPoint x="90" y="350" as="sourcePoint" />
            <mxPoint x="140" y="300" as="targetPoint" />
          </mxGeometry>
        </mxCell>
        <mxCell id="FTixMd0hW5arpMdyL_Ps-51" value="" style="endArrow=none;html=1;exitX=0.5;exitY=0;exitDx=0;exitDy=0;entryX=0.5;entryY=1;entryDx=0;entryDy=0;" edge="1" parent="FTixMd0hW5arpMdyL_Ps-1" source="FTixMd0hW5arpMdyL_Ps-24" target="FTixMd0hW5arpMdyL_Ps-21">
          <mxGeometry width="50" height="50" relative="1" as="geometry">
            <mxPoint x="160" y="390" as="sourcePoint" />
            <mxPoint x="160" y="280" as="targetPoint" />
          </mxGeometry>
        </mxCell>
        <mxCell id="FTixMd0hW5arpMdyL_Ps-52" value="" style="endArrow=none;html=1;entryX=1;entryY=0.5;entryDx=0;entryDy=0;exitX=0;exitY=0.5;exitDx=0;exitDy=0;" edge="1" parent="FTixMd0hW5arpMdyL_Ps-1" source="FTixMd0hW5arpMdyL_Ps-2" target="FTixMd0hW5arpMdyL_Ps-47">
          <mxGeometry width="50" height="50" relative="1" as="geometry">
            <mxPoint x="210" y="540" as="sourcePoint" />
            <mxPoint x="610" y="620" as="targetPoint" />
          </mxGeometry>
        </mxCell>
        <mxCell id="FTixMd0hW5arpMdyL_Ps-53" value="" style="endArrow=none;html=1;exitX=1;exitY=0.5;exitDx=0;exitDy=0;entryX=0;entryY=0.5;entryDx=0;entryDy=0;" edge="1" parent="FTixMd0hW5arpMdyL_Ps-1" source="FTixMd0hW5arpMdyL_Ps-24" target="FTixMd0hW5arpMdyL_Ps-47">
          <mxGeometry width="50" height="50" relative="1" as="geometry">
            <mxPoint x="70" y="550" as="sourcePoint" />
            <mxPoint x="120" y="500" as="targetPoint" />
          </mxGeometry>
        </mxCell>
        <mxCell id="FTixMd0hW5arpMdyL_Ps-54" value="Address" style="ellipse;whiteSpace=wrap;html=1;" vertex="1" parent="FTixMd0hW5arpMdyL_Ps-1">
          <mxGeometry x="830" y="350" width="80" height="50" as="geometry" />
        </mxCell>
        <mxCell id="FTixMd0hW5arpMdyL_Ps-55" value="" style="endArrow=classic;html=1;exitX=0.636;exitY=0.024;exitDx=0;exitDy=0;entryX=0.5;entryY=1;entryDx=0;entryDy=0;exitPerimeter=0;" edge="1" parent="FTixMd0hW5arpMdyL_Ps-1" source="FTixMd0hW5arpMdyL_Ps-2" target="FTixMd0hW5arpMdyL_Ps-54">
          <mxGeometry width="50" height="50" relative="1" as="geometry">
            <mxPoint x="867.5" y="600" as="sourcePoint" />
            <mxPoint x="690" y="620" as="targetPoint" />
          </mxGeometry>
        </mxCell>
        <mxCell id="FTixMd0hW5arpMdyL_Ps-56" value="Password" style="ellipse;whiteSpace=wrap;html=1;" vertex="1" parent="FTixMd0hW5arpMdyL_Ps-1">
          <mxGeometry x="740" y="370" width="80" height="50" as="geometry" />
        </mxCell>
        <mxCell id="FTixMd0hW5arpMdyL_Ps-57" value="" style="endArrow=classic;html=1;exitX=0.5;exitY=0;exitDx=0;exitDy=0;entryX=0.5;entryY=1;entryDx=0;entryDy=0;" edge="1" parent="FTixMd0hW5arpMdyL_Ps-1" source="FTixMd0hW5arpMdyL_Ps-2" target="FTixMd0hW5arpMdyL_Ps-56">
          <mxGeometry width="50" height="50" relative="1" as="geometry">
            <mxPoint x="810" y="570" as="sourcePoint" />
            <mxPoint x="630" y="520" as="targetPoint" />
          </mxGeometry>
        </mxCell>
        <mxCell id="FTixMd0hW5arpMdyL_Ps-58" value="category_name" style="ellipse;whiteSpace=wrap;html=1;" vertex="1" parent="FTixMd0hW5arpMdyL_Ps-1">
          <mxGeometry x="240" y="1112.5" width="100" height="50" as="geometry" />
        </mxCell>
        <mxCell id="FTixMd0hW5arpMdyL_Ps-59" value="" style="endArrow=classic;html=1;exitX=1;exitY=1;exitDx=0;exitDy=0;entryX=0;entryY=0.5;entryDx=0;entryDy=0;" edge="1" parent="FTixMd0hW5arpMdyL_Ps-1" source="FTixMd0hW5arpMdyL_Ps-4" target="FTixMd0hW5arpMdyL_Ps-58">
          <mxGeometry width="50" height="50" relative="1" as="geometry">
            <mxPoint x="300" y="1007.5" as="sourcePoint" />
            <mxPoint x="405" y="917.5" as="targetPoint" />
          </mxGeometry>
        </mxCell>
        <mxCell id="FTixMd0hW5arpMdyL_Ps-60" value="price" style="ellipse;whiteSpace=wrap;html=1;" vertex="1" parent="FTixMd0hW5arpMdyL_Ps-1">
          <mxGeometry x="-150" y="505" width="90" height="55" as="geometry" />
        </mxCell>
        <mxCell id="FTixMd0hW5arpMdyL_Ps-61" value="" style="endArrow=classic;html=1;entryX=0.5;entryY=1;entryDx=0;entryDy=0;" edge="1" parent="FTixMd0hW5arpMdyL_Ps-1" target="FTixMd0hW5arpMdyL_Ps-60">
          <mxGeometry width="50" height="50" relative="1" as="geometry">
            <mxPoint x="90" y="600" as="sourcePoint" />
            <mxPoint x="45" y="510" as="targetPoint" />
          </mxGeometry>
        </mxCell>
        <mxCell id="FTixMd0hW5arpMdyL_Ps-62" value="name" style="ellipse;whiteSpace=wrap;html=1;" vertex="1" parent="FTixMd0hW5arpMdyL_Ps-1">
          <mxGeometry x="-110" y="735" width="90" height="55" as="geometry" />
        </mxCell>
        <mxCell id="FTixMd0hW5arpMdyL_Ps-63" value="" style="endArrow=classic;html=1;exitX=0.25;exitY=1;exitDx=0;exitDy=0;entryX=1;entryY=0.5;entryDx=0;entryDy=0;" edge="1" parent="FTixMd0hW5arpMdyL_Ps-1" source="FTixMd0hW5arpMdyL_Ps-24" target="FTixMd0hW5arpMdyL_Ps-62">
          <mxGeometry width="50" height="50" relative="1" as="geometry">
            <mxPoint x="70" y="840" as="sourcePoint" />
            <mxPoint x="15" y="750" as="targetPoint" />
          </mxGeometry>
        </mxCell>
        <mxCell id="FTixMd0hW5arpMdyL_Ps-64" value="ctg" style="ellipse;whiteSpace=wrap;html=1;" vertex="1" parent="FTixMd0hW5arpMdyL_Ps-1">
          <mxGeometry x="-280" y="630" width="90" height="55" as="geometry" />
        </mxCell>
        <mxCell id="FTixMd0hW5arpMdyL_Ps-65" value="" style="endArrow=classic;html=1;exitX=0;exitY=0.75;exitDx=0;exitDy=0;" edge="1" parent="FTixMd0hW5arpMdyL_Ps-1" source="FTixMd0hW5arpMdyL_Ps-24">
          <mxGeometry width="50" height="50" relative="1" as="geometry">
            <mxPoint x="100" y="600" as="sourcePoint" />
            <mxPoint x="-190" y="660" as="targetPoint" />
          </mxGeometry>
        </mxCell>
        <mxCell id="FTixMd0hW5arpMdyL_Ps-66" value="payment_id" style="ellipse;whiteSpace=wrap;html=1;" vertex="1" parent="FTixMd0hW5arpMdyL_Ps-1">
          <mxGeometry x="660" y="1157.5" width="80" height="50" as="geometry" />
        </mxCell>
        <mxCell id="FTixMd0hW5arpMdyL_Ps-67" value="" style="endArrow=classic;html=1;entryX=0.5;entryY=0;entryDx=0;entryDy=0;exitX=0;exitY=1;exitDx=0;exitDy=0;" edge="1" parent="FTixMd0hW5arpMdyL_Ps-1" source="FTixMd0hW5arpMdyL_Ps-22" target="FTixMd0hW5arpMdyL_Ps-66">
          <mxGeometry width="50" height="50" relative="1" as="geometry">
            <mxPoint x="760" y="1020" as="sourcePoint" />
            <mxPoint x="360" y="1010" as="targetPoint" />
          </mxGeometry>
        </mxCell>
        <mxCell id="FTixMd0hW5arpMdyL_Ps-68" value="quantity" style="ellipse;whiteSpace=wrap;html=1;" vertex="1" parent="FTixMd0hW5arpMdyL_Ps-1">
          <mxGeometry x="560" y="1137.5" width="80" height="50" as="geometry" />
        </mxCell>
        <mxCell id="FTixMd0hW5arpMdyL_Ps-69" value="" style="endArrow=classic;html=1;entryX=0.5;entryY=0;entryDx=0;entryDy=0;exitX=0;exitY=0.75;exitDx=0;exitDy=0;" edge="1" parent="FTixMd0hW5arpMdyL_Ps-1" source="FTixMd0hW5arpMdyL_Ps-22" target="FTixMd0hW5arpMdyL_Ps-68">
          <mxGeometry width="50" height="50" relative="1" as="geometry">
            <mxPoint x="760" y="1030" as="sourcePoint" />
            <mxPoint x="370" y="1020" as="targetPoint" />
          </mxGeometry>
        </mxCell>
        <mxCell id="FTixMd0hW5arpMdyL_Ps-70" value="subtotal" style="ellipse;whiteSpace=wrap;html=1;" vertex="1" parent="FTixMd0hW5arpMdyL_Ps-1">
          <mxGeometry x="490" y="1102.5" width="80" height="50" as="geometry" />
        </mxCell>
        <mxCell id="FTixMd0hW5arpMdyL_Ps-71" value="" style="endArrow=classic;html=1;entryX=1;entryY=0.5;entryDx=0;entryDy=0;entryPerimeter=0;" edge="1" parent="FTixMd0hW5arpMdyL_Ps-1" target="FTixMd0hW5arpMdyL_Ps-70">
          <mxGeometry width="50" height="50" relative="1" as="geometry">
            <mxPoint x="760" y="1040.5" as="sourcePoint" />
            <mxPoint x="380" y="1030" as="targetPoint" />
          </mxGeometry>
        </mxCell>
        <mxCell id="FTixMd0hW5arpMdyL_Ps-72" value="name" style="ellipse;whiteSpace=wrap;html=1;" vertex="1" parent="FTixMd0hW5arpMdyL_Ps-1">
          <mxGeometry x="340" y="120" width="90" height="50" as="geometry" />
        </mxCell>
        <mxCell id="FTixMd0hW5arpMdyL_Ps-73" value="" style="endArrow=classic;html=1;exitX=1;exitY=0.25;exitDx=0;exitDy=0;entryX=0.5;entryY=1;entryDx=0;entryDy=0;" edge="1" parent="FTixMd0hW5arpMdyL_Ps-1" source="FTixMd0hW5arpMdyL_Ps-3" target="FTixMd0hW5arpMdyL_Ps-72">
          <mxGeometry width="50" height="50" relative="1" as="geometry">
            <mxPoint x="190" y="220" as="sourcePoint" />
            <mxPoint x="120" y="140" as="targetPoint" />
          </mxGeometry>
        </mxCell>
        <mxCell id="FTixMd0hW5arpMdyL_Ps-74" value="password" style="ellipse;whiteSpace=wrap;html=1;" vertex="1" parent="FTixMd0hW5arpMdyL_Ps-1">
          <mxGeometry x="270" y="65" width="90" height="50" as="geometry" />
        </mxCell>
        <mxCell id="FTixMd0hW5arpMdyL_Ps-75" value="" style="endArrow=classic;html=1;exitX=1;exitY=0;exitDx=0;exitDy=0;entryX=0.5;entryY=1;entryDx=0;entryDy=0;" edge="1" parent="FTixMd0hW5arpMdyL_Ps-1" source="FTixMd0hW5arpMdyL_Ps-3" target="FTixMd0hW5arpMdyL_Ps-74">
          <mxGeometry width="50" height="50" relative="1" as="geometry">
            <mxPoint x="290" y="215" as="sourcePoint" />
            <mxPoint x="210" y="155" as="targetPoint" />
          </mxGeometry>
        </mxCell>
        <mxCell id="FTixMd0hW5arpMdyL_Ps-76" value="" style="endArrow=none;html=1;exitX=0.5;exitY=0;exitDx=0;exitDy=0;entryX=0.5;entryY=1;entryDx=0;entryDy=0;" edge="1" parent="FTixMd0hW5arpMdyL_Ps-1" source="FTixMd0hW5arpMdyL_Ps-4" target="FTixMd0hW5arpMdyL_Ps-77">
          <mxGeometry width="50" height="50" relative="1" as="geometry">
            <mxPoint x="160" y="600" as="sourcePoint" />
            <mxPoint x="150" y="850" as="targetPoint" />
          </mxGeometry>
        </mxCell>
        <mxCell id="FTixMd0hW5arpMdyL_Ps-77" value="mempunyai" style="rhombus;whiteSpace=wrap;html=1;" vertex="1" parent="FTixMd0hW5arpMdyL_Ps-1">
          <mxGeometry x="90" y="780" width="120" height="60" as="geometry" />
        </mxCell>
        <mxCell id="FTixMd0hW5arpMdyL_Ps-78" value="" style="endArrow=none;html=1;exitX=0.5;exitY=0;exitDx=0;exitDy=0;entryX=0.5;entryY=1;entryDx=0;entryDy=0;" edge="1" parent="FTixMd0hW5arpMdyL_Ps-1" source="FTixMd0hW5arpMdyL_Ps-77" target="FTixMd0hW5arpMdyL_Ps-24">
          <mxGeometry width="50" height="50" relative="1" as="geometry">
            <mxPoint x="160" y="990" as="sourcePoint" />
            <mxPoint x="160" y="850" as="targetPoint" />
          </mxGeometry>
        </mxCell>
        <mxCell id="FTixMd0hW5arpMdyL_Ps-79" value="membuat" style="rhombus;whiteSpace=wrap;html=1;" vertex="1" parent="FTixMd0hW5arpMdyL_Ps-1">
          <mxGeometry x="765" y="780" width="120" height="60" as="geometry" />
        </mxCell>
        <mxCell id="FTixMd0hW5arpMdyL_Ps-80" value="" style="endArrow=none;html=1;exitX=0.5;exitY=0;exitDx=0;exitDy=0;entryX=0.5;entryY=1;entryDx=0;entryDy=0;" edge="1" parent="FTixMd0hW5arpMdyL_Ps-1" source="FTixMd0hW5arpMdyL_Ps-79" target="FTixMd0hW5arpMdyL_Ps-2">
          <mxGeometry width="50" height="50" relative="1" as="geometry">
            <mxPoint x="310" y="600" as="sourcePoint" />
            <mxPoint x="310" y="450" as="targetPoint" />
          </mxGeometry>
        </mxCell>
        <mxCell id="FTixMd0hW5arpMdyL_Ps-81" value="" style="endArrow=none;html=1;entryX=0.5;entryY=1;entryDx=0;entryDy=0;exitX=0.5;exitY=0;exitDx=0;exitDy=0;" edge="1" parent="FTixMd0hW5arpMdyL_Ps-1" source="FTixMd0hW5arpMdyL_Ps-22" target="FTixMd0hW5arpMdyL_Ps-79">
          <mxGeometry width="50" height="50" relative="1" as="geometry">
            <mxPoint x="770" y="630" as="sourcePoint" />
            <mxPoint x="470" y="630" as="targetPoint" />
          </mxGeometry>
        </mxCell>
      </root>
    </mxGraphModel>
  </diagram>
</mxfile>
